<svg xmlns="http://www.w3.org/2000/svg" width="30" height="21" fill="none" viewBox="0 0 30 21"><path fill="#808893" fill-rule="evenodd" d="M17.772 3.516c-1.142.591-2.056 1.487-2.599 2.562-.71.373-1.17.817-1.287 1.298l-.017.048-.028.083c.527 3.053 3.527 5.393 7.148 5.393 3.619 0 6.617-2.337 7.148-5.386l-.044-.138c-.117-.48-.577-.925-1.287-1.298-.543-1.075-1.457-1.971-2.599-2.562-.858-.6-1.984-.965-3.218-.965s-2.36.364-3.217.965m10.41 4.142c-.374 3.2-3.452 5.697-7.193 5.697-3.746 0-6.827-2.504-7.194-5.712a26.4 26.4 0 0 0-1.02 4.474 71 71 0 0 0-.28 2.3 442 442 0 0 0 8.451.084c2.513 0 4.808-.025 6.475-.05l.535-.008 1.443-.026.07-.002a54 54 0 0 0-.38-3.01c-.264-1.596-.715-3.132-.907-3.747m1.298 6.871-.079.002a441 441 0 0 1-8.455.084 441 441 0 0 1-8.454-.084h-.009a62 62 0 0 0-.206 2.399l.219.009.397.016a174 174 0 0 0 1.58.055c1.667.051 3.962.103 6.474.103a213 213 0 0 0 8.45-.174l.302-.013c-.026-.323-.106-1.287-.219-2.397m.228 2.51-.305.014a183 183 0 0 1-1.98.07 213 213 0 0 1-6.476.104 213 213 0 0 1-7.674-.144l-.333-.012-.45-.018-.22-.01.296 1.305s1.263.203 8.423.203 8.424-.2 8.424-.2l.295-1.31zm-3.722-9.72c0 2.5-2.237 4.527-4.997 4.527S15.993 9.82 15.993 7.32s2.237-4.526 4.996-4.526 4.997 2.026 4.997 4.526m-5.563 10.433c0-.064.052-.116.115-.116h.902q.041.001.072.025a.116.116 0 0 1-.071.207h-.903a.116.116 0 0 1-.115-.116m.566-13.56c.081 0 .146-.06.146-.132s-.065-.132-.146-.132-.146.059-.146.132c0 .072.066.131.146.131m2.491 3.127c0 1.247-1.115 2.257-2.49 2.257s-2.492-1.01-2.492-2.257c0-1.246 1.116-2.256 2.491-2.256s2.491 1.01 2.491 2.256m-1.181 0c0 .656-.586 1.187-1.31 1.187-.723 0-1.31-.531-1.31-1.187 0-.655.587-1.186 1.31-1.186s1.31.531 1.31 1.186m-2.75 3.079c0 .069-.066.124-.147.124s-.146-.056-.146-.124c0-.069.066-.125.146-.125s.146.056.146.125m3.028.124c.08 0 .145-.056.145-.124a.1.1 0 0 0-.034-.08.16.16 0 0 0-.111-.045c-.081 0-.146.056-.146.125s.065.124.146.124M11.04 4.188c1.527 0 2.91.61 3.917 1.599l-.027.054c-.08.044-.25.141-.322.19a5.1 5.1 0 0 0-3.568-1.453c-2.768 0-5.021 2.199-5.09 4.938.085 1.775 2.331 3.197 5.09 3.197q.704 0 1.352-.117-.024.151-.058.41a8.5 8.5 0 0 1-1.294.097c-3.023 0-5.485-1.559-5.577-3.504H5.46a5.5 5.5 0 0 1 .272-1.579 2.7 2.7 0 0 0-.476 1.501c0 2.084 2.589 3.773 5.783 3.773q.655-.001 1.269-.091a73 73 0 0 0-.288 2.83q-.494.002-1.017.002c-4.788 0-7.65-.149-9.313-.297a35 35 0 0 1-1.007-.106l-.117-.015q-.125-.015-.23-.031L0 14.347h.032L0 14.343 5.893 7.59a5.58 5.58 0 0 1 5.147-3.403m.904 12.796.06-.76-1 .002c-4.791 0-7.66-.149-9.33-.298a32 32 0 0 1-1.283-.142l.519 1.906s.742.858 10.118.858q.663 0 1.27-.005a27 27 0 0 1-.354-1.561m-1.599 1.131a.15.15 0 0 1 .15-.149h1.066a.15.15 0 0 1 .15.15.15.15 0 0 1-.15.149h-1.066a.15.15 0 0 1-.15-.15m.695-7.431c.979 0 1.772-.79 1.772-1.764 0-.975-.793-1.765-1.772-1.765s-1.772.79-1.772 1.765.793 1.764 1.772 1.764" clip-rule="evenodd"/></svg>