<svg xmlns="http://www.w3.org/2000/svg" width="20" height="20" fill="none" viewBox="0 0 20 20"><path fill="#808893" fill-rule="evenodd" d="M5.57 2h-.564C4.174 2 3.5 2.674 3.5 3.506v3.753h1.67v.188H3.5v.682h1.67v.189H3.5V9h1.67v.188H3.5v.683h1.67v.188H3.5v.682h1.67v.188H3.5v.683h1.67v.188H3.5v.682h1.67v.189H3.5v.682h1.67v.188H3.5v2.953c0 .832.674 1.506 1.506 1.506h5.117a1.02 1.02 0 0 1-.196-.602V9.825c0-.565.458-1.022 1.022-1.022h2.191v-.485h-.31v-.189h.31v-.682h-.31V7.26h.31v-.683h-.31v-.188h.31V5.133c0-.462.375-.836.836-.836h.536v-.791c0-.832-.674-1.506-1.506-1.506H5.829v.835h-.258zm3.612.824a.106.106 0 1 0 0-.212.106.106 0 0 0 0 .212m1.325-.05a.1.1 0 0 1-.09.05.106.106 0 1 1 .09-.05m1.146.05a.106.106 0 1 0 0-.213.106.106 0 0 0 0 .212M8.73 6.777a.106.106 0 1 1-.13-.167.106.106 0 0 1 .131.167M8.665 8.13a.106.106 0 1 0 0-.211.106.106 0 0 0 0 .211m.106 1.224a.106.106 0 1 1-.212 0 .106.106 0 0 1 .212 0m-.106 1.435a.106.106 0 1 0 0-.211.106.106 0 0 0 0 .211m.106 1.224a.106.106 0 1 1-.212 0 .106.106 0 0 1 .212 0m-.106 1.435a.106.106 0 1 0 0-.212.106.106 0 0 0 0 .212m.976-5.423a.105.105 0 0 1-.106.105.106.106 0 1 1 .106-.105m-.106 4.07a.106.106 0 1 0 0-.212.106.106 0 0 0 0 .212m4.026-6.961c0-.23.186-.415.415-.415h2.53c.228 0 .414.186.414.415v12.452a.413.413 0 0 1-.415.415H14.35a1 1 0 0 0 .195-.602v-.072h1.666a.08.08 0 0 0 .078-.078.08.08 0 0 0-.078-.078h-1.666v-.743h1.657l.008-.001a.14.14 0 0 0 .07-.031l.005-.005.005-.004.007-.008.01-.012a.14.14 0 0 0 .023-.077V6.892a.14.14 0 0 0-.138-.138h-1.9a.14.14 0 0 0-.139.138V9.02a1 1 0 0 0-.59-.217zm1.68.772a.35.35 0 1 0 0-.7.35.35 0 0 0 0 .7m.61-.526.018-.017.007-.005.008-.005a.1.1 0 0 1 .044-.01c.054 0 .097.043.097.097v.218a.097.097 0 1 1-.194 0V5.44q0-.035.02-.06m.558.225a.055.055 0 1 0 0-.11.055.055 0 0 0 0 .11m-2.281-.055a.055.055 0 1 1-.11 0 .055.055 0 0 1 .11 0m-3.179 3.675a.6.6 0 0 0-.601.601v7.573c0 .333.27.602.601.602h2.573c.332 0 .601-.27.601-.602V9.825a.6.6 0 0 0-.601-.601zm.232 7.768a.141.141 0 0 0 0 .282h2.11a.141.141 0 0 0 0-.282z" clip-rule="evenodd"/></svg>