<svg xmlns="http://www.w3.org/2000/svg" width="84" height="38" fill="none" viewBox="0 0 84 38"><path fill="#808893" fill-rule="evenodd" d="M27.011 3.54H15.986A5.07 5.07 0 0 1 20.818 0h57.423a5.067 5.067 0 0 1 5.066 5.067v21.11a5.067 5.067 0 0 1-5.066 5.067H58.818v.845a.845.845 0 0 1-.844.844v.845c.466 0 .844.378.844.844v1.689c0 .933-.756 1.689-1.688 1.689h-1.69a1.69 1.69 0 0 1-1.688-1.689v-1.689c0-.466.378-.844.844-.844v-.845a.845.845 0 0 1-.844-.844v-.844h-.845v.844c0 .933-.756 1.689-1.688 1.689h-4.223a1.69 1.69 0 0 1-1.689-1.69v-.844h-.844v.845a.844.844 0 0 1-.844.844v.845a.844.844 0 0 1 .844.844v1.689c0 .933-.756 1.689-1.689 1.689h-1.689a1.69 1.69 0 0 1-1.689-1.689v-1.689a.84.84 0 0 1 .845-.844v-.845a.845.845 0 0 1-.845-.844v-.844h-4.272q.005-.149.005-.298v-19.29a8.12 8.12 0 0 0-8.118-8.118m23.54 11.911v.512l-.001.179v.008q-.003.087-.01.17a1.1 1.1 0 0 1-.124.435q-.03.054-.067.106a1.03 1.03 0 0 1-.96.401 1.03 1.03 0 0 1-.746-.507 1 1 0 0 1-.065-.148 1.4 1.4 0 0 1-.059-.286l-.01-.15v-.03l-.001-.073v-1.862h-1.022v1.918c0 .187.016.409.053.583q.03.147.087.287a2 2 0 0 0 .127.268q.092.16.214.305l.007.007q.03.038.066.074l.031.033.045.044a2.03 2.03 0 0 0 1.629.557 2.03 2.03 0 0 0 1.327-.692l.005-.006.009-.01.006-.008a2 2 0 0 0 .428-.859 3 3 0 0 0 .053-.583v-.162h-.51v-.51h.51v-.512h-.51v-.383h-.384v.383h.383v.511zm.895-1.277h-.256v.256h.256zM.693 11.653a7.01 7.01 0 0 1 7.011-7.011H27.03a7.01 7.01 0 0 1 7.01 7.01v19.325a7.01 7.01 0 0 1-7.01 7.011H7.704a7.01 7.01 0 0 1-7.01-7.01zm17.53 9.652v-.429h.428v.428h.428v.136c0 .156-.014.342-.044.488a1.7 1.7 0 0 1-.36.72l-.005.006-.055.063q-.03.033-.065.064a1.7 1.7 0 0 1-1.364.466 1.7 1.7 0 0 1-1.003-.466 2 2 0 0 1-.12-.127l-.005-.006a1.66 1.66 0 0 1-.36-.72 2.6 2.6 0 0 1-.043-.488v-1.607h.855v1.472l.001.15v.007q.002.072.01.142a.9.9 0 0 0 .103.364q.025.045.056.089a.86.86 0 0 0 .803.336.86.86 0 0 0 .626-.425.9.9 0 0 0 .103-.364q.008-.07.009-.142v-.007c.002-.037.002-.15.002-.15m.427-.857h.428v.428h-.427v-.427m0 0h-.32v-.32h.32zm.107-.642h.214v.214h-.214z" clip-rule="evenodd"/></svg>