<svg xmlns="http://www.w3.org/2000/svg" width="22" height="22" fill="none" viewBox="0 0 22 22"><path fill="#808893" d="M11.55 5.5v1.1h-1.1V5.5zm7.15 9.9v1.1h-1.1v-1.1zm-7.15 0v1.1h-1.1v-1.1zm-7.15 0v1.1H3.3v-1.1zm7.15-11h-1.1a1.1 1.1 0 0 0-1.1 1.1v1.1a1.1 1.1 0 0 0 1.1 1.1v2.2H4.4A1.1 1.1 0 0 0 3.3 11v3.3a1.1 1.1 0 0 0-1.1 1.1v1.1a1.1 1.1 0 0 0 1.1 1.1h1.1a1.1 1.1 0 0 0 1.1-1.1v-1.1a1.1 1.1 0 0 0-1.1-1.1V11h6.05v3.3a1.1 1.1 0 0 0-1.1 1.1v1.1a1.1 1.1 0 0 0 1.1 1.1h1.1a1.1 1.1 0 0 0 1.1-1.1v-1.1a1.1 1.1 0 0 0-1.1-1.1V11h6.05v3.3a1.1 1.1 0 0 0-1.1 1.1v1.1a1.1 1.1 0 0 0 1.1 1.1h1.1a1.1 1.1 0 0 0 1.1-1.1v-1.1a1.1 1.1 0 0 0-1.1-1.1V11a1.1 1.1 0 0 0-1.1-1.1h-6.05V7.7a1.1 1.1 0 0 0 1.1-1.1V5.5a1.1 1.1 0 0 0-1.1-1.1"/></svg>