<svg xmlns="http://www.w3.org/2000/svg" width="20" height="11" fill="none" viewBox="0 0 20 11"><path fill="#808893" fill-rule="evenodd" d="M14.586 0a1 1 0 0 1 .707.293l4.56 4.56a.5.5 0 0 1 .102.147H.045a.5.5 0 0 1 .101-.146L4.707.293A1 1 0 0 1 5.414 0zM0 6v4.5a.5.5 0 0 0 .5.5h19a.5.5 0 0 0 .5-.5V6zm12.1.9h.4V7h.2v.2h.1v.7h-1v-.7h.1V7h.2zM2.2 7a.2.2 0 0 0-.2.2v1.6c0 .11.09.2.2.2h1.6a.2.2 0 0 0 .2-.2V7.2a.2.2 0 0 0-.2-.2zm3.8.2c0-.11.09-.2.2-.2h4.6c.11 0 .2.09.2.2v1.6a.2.2 0 0 1-.2.2H6.2a.2.2 0 0 1-.2-.2zm7.7-.3h-.4V7h-.2v.2H13v.7h1v-.7h-.1V7h-.2zm.8 0h.4V7h.2v.2h.1v.7h-1v-.7h.1V7h.2zm2 1.2h-.4v.1h-.2v.2h-.1v.7h1v-.7h-.1v-.2h-.2zm.6-1.2h.8v.2h.1v.8h-1v-.8h.1zm0 2.2h.8v-.2h.1v-.8h-1v.8h.1zm-4.6 0h-.4V9h-.2v-.2h-.1v-.7h1v.7h-.1V9h-.2zm.8 0h.4V9h.2v-.2h.1v-.7h-1v.7h.1V9h.2zm1.6 0h-.4V9h-.2v-.2h-.1v-.7h1v.7h-.1V9h-.2z" clip-rule="evenodd"/></svg>